PathFileType	4	(X/Y/Z)	F:\MotionCapture\20160217\3\Generated_files\EMG_test02-Dynamic.trc
DataRate	CameraRate	NumFrames	NumMarkers	Units	OrigDataRate	OrigDataStartFrame	OrigNumFrames
120.00	120.00	       7	39	mm	120.00	1	       679
Frame#	Time	Top.Head			Front.Head			Rear.Head			R.Shoulder			R.Offset			R.Elbow			R.Wrist			L.Shoulder			L.Elbow			L.Wrist			R.ASIS			L.ASIS			V.Sacral			R.Thigh			R.Knee			R.Shank			R.Ankle			R.Heel			R.Toe			L.Thigh			L.Knee			L.Shank			L.Ankle			L.Heel			L.Toe			R1			R2			R3			R4			R5			R6			R7			L1			L2			L3			L4			L5			L6			L7			V_Mid_ASIS			V_Pelvis_Origin			V_R.Hip_JC			V_L.Hip_JC			V_R.Knee_JC			V_L.Knee_JC			V_R.Ankle_JC			V_L.Ankle_JC			V_Mid_Hip			V_Mid_Shoulder			V_R.Hand			V_L.Hand			V_R.Toe_Offset_Static			V_L.Toe_Offset_Static			V_R.Toe_Offset			V_L.Toe_Offset			
		X1	Y1	Z1	X2	Y2	Z2	X3	Y3	Z3	X4	Y4	Z4	X5	Y5	Z5	X6	Y6	Z6	X7	Y7	Z7	X8	Y8	Z8	X9	Y9	Z9	X10	Y10	Z10	X11	Y11	Z11	X12	Y12	Z12	X13	Y13	Z13	X14	Y14	Z14	X15	Y15	Z15	X16	Y16	Z16	X17	Y17	Z17	X18	Y18	Z18	X19	Y19	Z19	X20	Y20	Z20	X21	Y21	Z21	X22	Y22	Z22	X23	Y23	Z23	X24	Y24	Z24	X25	Y25	Z25	X26	Y26	Z26	X27	Y27	Z27	X28	Y28	Z28	X29	Y29	Z29	X30	Y30	Z30	X31	Y31	Z31	X32	Y32	Z32	X33	Y33	Z33	X34	Y34	Z34	X35	Y35	Z35	X36	Y36	Z36	X37	Y37	Z37	X38	Y38	Z38	X39	Y39	Z39	

1	0.000	3213.79346	108.09079	1733.90100	3103.11230	93.30024	1651.69409	3321.79321	122.16180	1664.29858	3268.67822	293.21210	1427.85571	3404.72192	18.95083	1291.75000	3320.64502	392.57263	1104.29785	3156.48999	368.67877	900.71271	3239.55298	-113.79961	1433.13074	3242.88623	-207.28079	1105.72644	3124.66821	-161.70557	880.94928	3221.97778	240.37318	951.35254	3205.05835	-49.57931	951.68719	3436.20386	86.51962	955.96521	3139.79028	231.39922	592.12811	3195.11182	281.21533	479.03809	3233.34985	222.46112	241.61742	3313.26855	295.71600	89.19173	3378.40967	228.96275	58.77748	3174.36987	288.98923	63.41696	3175.35132	2.26058	628.34961	3278.31763	-43.57006	470.35562	3275.17578	36.06260	330.80289	3374.48364	-12.92225	69.87698	3433.87329	46.92469	54.96721	3232.93384	-20.10325	50.36016	3123.58472	271.94556	59.22828	3164.01929	254.71896	68.53913	3254.83032	213.92119	74.31474	3329.37231	204.28314	56.15233	3351.33667	277.16043	59.40543	3276.16138	311.32077	51.55157	3213.76709	325.63165	52.59567	3184.81641	3.63889	45.11741	3218.39160	18.42069	53.52087				3392.19312	74.72873	54.27206	3410.70117	4.58347	54.46198				3277.61792	-49.68027	49.17829																																																	3225.60327	-25.07257	-94.53468	3455.75562	-42.56085	185.24045	4119.37354	-147.28777	-148.94392	
2	0.008	3213.78271	107.33114	1733.69177	3103.01880	91.94769	1651.10718	3321.76978	121.83109	1664.25647	3269.64941	293.33243	1428.19824				3320.36230	392.34158	1104.37439	3154.66968	367.20483	902.18903	3239.42432	-113.86992	1433.06201	3242.93311	-206.24513	1104.80298	3126.28345	-161.86681	880.55487	3219.71021	239.99879	951.93494	3203.95068	-49.07458	951.65039	3435.01489	86.57835	955.95355	3140.76538	229.61743	591.31403	3197.06958	280.75555	478.51566	3232.39722	221.76855	241.24527	3309.31226	296.24451	86.20134	3374.79150	230.23669	56.47470	3169.59692	290.01630	58.87542	3175.59619	2.57310	628.06970	3278.95435	-43.36577	470.36639	3275.67407	35.81651	330.99890	3374.53882	-12.99181	69.90839	3433.90869	46.97366	54.99043	3232.95142	-20.14872	50.30804	3120.26538	271.81332	53.95550	3160.09863	255.13660	63.61980	3255.79175	215.55040	69.32774	3325.76367	206.40097	54.27177	3347.80591	277.06747	56.73224	3272.68359	311.15359	48.88371	3209.31909	327.93259	50.06801	3184.78491	3.73679	45.07206	3218.57007	18.73708	53.58678				3392.19360	74.78014	54.31333	3410.70972	4.57641	54.49402				3278.18799	-48.75557	49.83075																																																	3225.60083	-25.09970	-94.51632	3455.89160	-42.82450	185.54024	4119.09766	-147.06326	-148.84549	
3	0.017	3213.72266	106.81300	1733.46069	3102.75244	91.09103	1650.84314	3321.71729	121.48940	1664.21228	3270.04712	293.13159	1428.27319	3404.43628	19.55836	1290.85974	3320.13477	392.26337	1104.38660	3152.19458	364.01221	903.56659	3239.39502	-113.90228	1433.00049	3243.49512	-206.50122	1104.68896	3127.59668	-161.02553	879.58673	3218.90186	240.14018	951.80945	3202.89673	-48.39525	951.47595	3434.42847	86.26945	955.63501	3142.90479	228.91988	589.50696	3199.68457	280.15958	477.52460	3231.82324	222.42287	240.41751	3307.06958	296.33746	83.74506	3371.99146	233.62357	56.05451	3166.77856	291.89294	55.12215	3175.63257	2.62475	627.95831	3279.62524	-43.28195	470.38370	3276.24219	35.50667	331.39221	3374.58057	-13.00062	69.90815	3433.91406	46.97239	54.98614	3232.96167	-20.15198	50.32979	3117.66089	273.71887	48.57243	3157.72290	256.41299	59.11135	3253.26245	216.48178	65.48399	3324.34961	206.64380	52.85343	3346.62964	279.41238	57.49545				3207.21924	332.68747	47.69625	3184.82153	3.73967	45.12693	3218.57568	18.71129	53.53493				3392.17578	74.61454	54.23196	3410.72046	4.58006	54.47276	3341.01025	-31.19266	46.53798	3278.17188	-48.76963	49.80574																																																	3164.52246	185.00089	133.25296	3225.58398	-25.10719	-94.50782	3455.93066	-42.81264	185.75003	4115.97461	-146.45982	-148.32475	
4	0.025	3213.53076	106.42869	1733.27405	3103.34155	90.75986	1650.56201	3321.60938	120.51498	1664.10718	3270.17676	292.79544	1428.37292	3404.40552	18.46965	1290.45764	3319.90845	392.29413	1104.28247	3150.67676	362.49783	905.11768	3239.37036	-113.92255	1432.88464	3243.76147	-206.97014	1104.67932	3129.09375	-160.87688	878.37469	3216.60352	240.53082	952.46210	3202.09937	-48.09893	951.37347	3433.31128	86.07203	955.55353	3144.72314	229.98065	588.44659	3201.78638	280.53931	477.16733	3232.08984	223.17198	238.80119	3306.83984	296.02396	83.49583	3372.24414	232.89165	56.19729	3164.99927	293.06192	51.49297	3175.50684	2.59400	627.90637	3280.44971	-43.23429	470.50497				3374.75195	-13.48098	70.52069	3433.94458	46.89110	54.97897	3232.99170	-20.10247	50.29067	3117.90234	276.01367	48.21078	3161.31006	262.34695	63.00837	3252.44116	215.94350	64.46396	3324.23364	206.41304	51.99689	3347.02979	278.94681	57.62341	3273.69629	312.20157	47.73051	3209.13818	338.31100	45.61309	3184.88843	3.81346	45.19593	3218.37256	18.35258	53.46048				3392.17310	74.80735	54.36314	3410.79761	4.52462	54.51561	3341.04346	-31.24427	46.53192	3278.16821	-48.69142	49.85567																																																	3225.62842	-25.12703	-94.50420	3456.06299	-42.73918	186.00607	4117.43213	-147.06035	-148.64473	2706.14404	-23.86699	370.31696	
5	0.033	3213.33252	106.26549	1733.05701	3103.30566	90.02275	1650.31152	3321.47949	120.25503	1663.96509	3270.45313	292.64661	1428.32654	3404.56592	18.54791	1289.85413	3319.42188	392.44427	1104.12817	3148.89868	360.71713	906.69366	3239.48291	-113.86403	1432.31653	3243.93848	-207.05725	1104.50598	3129.79785	-160.35019	877.96606				3201.69043	-48.03848	951.27509	3432.31567	86.21872	955.33386	3145.52368	230.49124	586.97302	3203.80347	281.04791	476.70462	3232.75806	222.79543	238.26129	3309.37012	296.87744	84.98198	3373.25854	231.95418	55.91057	3166.44531	292.63651	51.48318	3175.55615	3.13050	627.41217	3281.15112	-43.12379	470.54959				3374.83301	-13.66290	70.72779	3433.91162	46.87559	55.00541	3232.99023	-20.17877	50.28077	3118.74341	274.69208	48.04256	3161.84766	260.05399	59.39862	3253.95410	215.77298	64.88587	3325.01221	206.21477	51.89716	3347.88550	279.66605	57.06336	3275.79224	312.03174	47.03636	3211.17334	336.45090	45.60997	3184.82642	3.82961	45.11527	3218.41748	18.34331	53.53382				3392.09790	74.59425	54.27823	3410.79492	4.47867	54.54541				3278.13306	-48.75910	49.85495																																																	3225.61841	-25.16339	-94.47817	3456.17407	-42.65139	186.18443	4119.56934	-147.47934	-148.72668	
6	0.042	3212.93433	105.88165	1732.88843	3103.03906	89.89787	1649.90503	3321.26758	120.72289	1664.15100	3270.67236	292.76331	1428.29285							3146.74658	359.50174	907.17529	3239.58301	-114.04731	1432.03113	3244.21753	-207.47615	1104.23230	3132.09082	-159.96330	877.21588				3200.65601	-47.46984	951.12177	3431.84814	86.16702	955.08850	3146.60742	231.16328	586.33514	3204.13281	280.72443	475.78439	3233.96484	223.23404	238.02882	3310.96997	296.23166	85.05061	3374.58862	232.13074	55.60730	3168.25928	290.89651	53.78781	3175.28247	4.13172	626.71088	3281.55786	-43.36723	471.10178				3374.83887	-13.56873	70.73023	3433.92676	46.92684	55.03901	3232.93188	-20.06427	50.30083	3119.73071	272.20370	48.09661	3162.89990	258.76453	59.48215	3255.72827	215.51180	65.97141	3326.27637	205.89432	51.97101	3348.56885	277.33008	57.34824	3275.70020	312.16354	47.36977	3209.51196	333.93161	47.03331	3184.82983	3.88018	45.11906	3218.41626	18.44036	53.52968				3392.16016	74.58688	54.39181							3278.13281	-48.75061	49.84997																																																	3404.87451	462.72214	1177.08252	3411.95117	209.43712	-85.17047	3481.74561	110.16893	276.80435	3225.61353	-25.17961	-94.46648	3348.06714	209.14026	9.13735	3456.25806	-42.55310	186.32628	3745.11841	-4.65899	-116.85461	4121.71777	-147.70041	-148.95537	
7	0.050	3212.55322	105.73591	1732.85999	3102.80005	89.46349	1649.83057	3321.03711	121.22368	1664.32275	3270.89160	292.52573	1428.06152							3145.44873	357.87143	907.65448	3240.07031	-114.76593	1431.38599	3244.23462	-207.56064	1103.84473	3133.69043	-159.74626	876.31134				3199.95020	-47.00271	951.30090	3430.73999	86.11983	954.70856	3146.84058	232.23010	585.45428	3204.48291	281.49673	476.92078	3234.21875	222.77524	238.66568	3311.04395	296.27673	85.14871	3375.37134	232.39734	55.29003	3167.79517	290.97784	52.91240	3175.21533	4.95010	626.58344	3282.06763	-42.95830	471.31738	3279.25537	37.64089	333.03598	3374.61597	-12.86306	69.97788	3433.96240	46.90165	55.09996	3232.92432	-20.03296	50.32249	3120.25146	272.57858	48.12328	3160.91724	254.18771	57.48475	3256.33984	214.81924	65.69050	3326.80151	205.93379	52.55130	3349.07275	277.10080	57.00900	3276.02954	312.44376	47.27066	3209.79858	333.57770	47.12509	3184.86719	3.88130	45.18415	3218.39697	18.47093	53.49164				3392.17798	74.76235	54.46231							3278.08350	-48.76134	49.86047																																																	3404.63770	462.98486	1176.68335	3411.83057	209.36314	-85.30239	3225.57715	-25.18961	-94.45217	3456.36670	-42.34278	186.46555	4121.74170	-147.91803	-148.68976	
